<svg id="astronaut" xmlns="http://www.w3.org/2000/svg" xmlns:xlink="http://www.w3.org/1999/xlink" viewBox="0 0 334.05 567.61"><defs><style>.cls-1,.cls-5{fill:#fff;}.cls-1,.cls-13,.cls-17,.cls-2,.cls-23,.cls-7,.cls-8{stroke:#787878;}.cls-1,.cls-13,.cls-14,.cls-16,.cls-17,.cls-2,.cls-23,.cls-7,.cls-8{stroke-miterlimit:10;}.cls-15,.cls-2{fill:#ddd;}.cls-3{fill:url(#linear-gradient);}.cls-4{fill:#e6e7e8;}.cls-6{fill:#003048;}.cls-7{fill:url(#linear-gradient-2);}.cls-16,.cls-8{fill:none;}.cls-9{fill:url(#linear-gradient-3);}.cls-10{fill:url(#linear-gradient-4);}.cls-11{fill:url(#linear-gradient-5);}.cls-12{fill:#004a66;}.cls-13{fill:url(#linear-gradient-6);}.cls-14,.cls-15,.cls-24,.cls-25{opacity:0.6;}.cls-14{fill:url(#linear-gradient-7);stroke:url(#linear-gradient-8);}.cls-16{stroke:#f0525e;stroke-linecap:round;}.cls-17{fill:url(#linear-gradient-9);}.cls-18{fill:url(#linear-gradient-10);}.cls-19{fill:url(#linear-gradient-11);}.cls-20{fill:url(#linear-gradient-12);}.cls-21{fill:url(#linear-gradient-13);}.cls-22{fill:url(#linear-gradient-14);}.cls-23{fill:url(#linear-gradient-15);}.cls-24{fill:url(#linear-gradient-16);}.cls-25{fill:url(#linear-gradient-17);}.cls-26{fill:url(#linear-gradient-18);}</style><linearGradient id="linear-gradient" x1="106.35" y1="420.5" x2="137.63" y2="420.5" gradientUnits="userSpaceOnUse"><stop offset="0" stop-color="#0f6897"/><stop offset="0" stop-color="#6487ad"/><stop offset="1" stop-color="#0f6897"/></linearGradient><linearGradient id="linear-gradient-2" x1="137.12" y1="211.62" x2="238.24" y2="211.62" xlink:href="#linear-gradient"/><linearGradient id="linear-gradient-3" x1="156.62" y1="449.89" x2="170.11" y2="449.89" xlink:href="#linear-gradient"/><linearGradient id="linear-gradient-4" x1="154.77" y1="495.96" x2="194.52" y2="495.96" xlink:href="#linear-gradient"/><linearGradient id="linear-gradient-5" x1="177.87" y1="277.23" x2="197.16" y2="277.23" xlink:href="#linear-gradient"/><linearGradient id="linear-gradient-6" x1="47.43" y1="207.42" x2="72.57" y2="207.42" xlink:href="#linear-gradient"/><linearGradient id="linear-gradient-7" x1="79.85" y1="418.68" x2="359.53" y2="138.99" gradientUnits="userSpaceOnUse"><stop offset="0" stop-color="#0f6897"/><stop offset="0" stop-color="#fff"/><stop offset="0.25" stop-color="#f0f0f1" stop-opacity="0.91"/><stop offset="0.81" stop-color="#cacccd" stop-opacity="0.68"/><stop offset="1" stop-color="#bcbec0" stop-opacity="0.6"/></linearGradient><linearGradient id="linear-gradient-8" x1="370.52" y1="429.67" x2="68.7" y2="127.85" xlink:href="#linear-gradient-7"/><linearGradient id="linear-gradient-9" x1="269.18" y1="286.35" x2="328.29" y2="286.35" xlink:href="#linear-gradient"/><linearGradient id="linear-gradient-10" x1="299.98" y1="217.09" x2="316.23" y2="217.09" xlink:href="#linear-gradient"/><linearGradient id="linear-gradient-11" x1="137.12" y1="135.76" x2="252.89" y2="135.76" xlink:href="#linear-gradient"/><linearGradient id="linear-gradient-12" x1="166.64" y1="440.79" x2="211.46" y2="440.79" xlink:href="#linear-gradient"/><linearGradient id="linear-gradient-13" x1="202.96" y1="428.19" x2="228.78" y2="428.19" xlink:href="#linear-gradient"/><linearGradient id="linear-gradient-14" x1="213.79" y1="527.22" x2="266.43" y2="527.22" xlink:href="#linear-gradient"/><linearGradient id="linear-gradient-15" x1="131.81" y1="290.12" x2="254.71" y2="290.12" xlink:href="#linear-gradient"/><linearGradient id="linear-gradient-16" x1="116.96" y1="420.06" x2="194.87" y2="342.14" gradientUnits="userSpaceOnUse"><stop offset="0" stop-color="#0f6897"/><stop offset="0" stop-color="#fff"/><stop offset="0.28" stop-color="#fefefe" stop-opacity="0.99"/><stop offset="0.44" stop-color="#fafafa" stop-opacity="0.97"/><stop offset="0.58" stop-color="#f3f4f4" stop-opacity="0.93"/><stop offset="0.7" stop-color="#eaeaeb" stop-opacity="0.87"/><stop offset="0.8" stop-color="#dedfe0" stop-opacity="0.8"/><stop offset="0.9" stop-color="#cfd0d2" stop-opacity="0.71"/><stop offset="0.99" stop-color="#bdbfc1" stop-opacity="0.61"/><stop offset="1" stop-color="#bcbec0" stop-opacity="0.6"/></linearGradient><linearGradient id="linear-gradient-17" x1="193.47" y1="328.74" x2="195.95" y2="328.74" gradientUnits="userSpaceOnUse"><stop offset="0" stop-color="#0f6897"/><stop offset="0" stop-color="#fff"/><stop offset="0.83" stop-color="#bcbec0"/></linearGradient><linearGradient id="linear-gradient-18" x1="131.7" y1="415.6" x2="161.34" y2="415.6" xlink:href="#linear-gradient"/></defs><title>astronaut</title><path class="cls-1" d="M212,303.2l-1.64,15-3.76,34.56-8.55,78.54-14.67,5.49-22.82,8.54a74.29,74.29,0,0,1-19.56-1.9l-.85-.21Q138,442.69,136,442c-20.7-7-26.5-22.61-26.5-22.61a135.5,135.5,0,0,1-3.06-19.73c0-.22,0-.44-.05-.66-4.7-62.08,34.57-108.41,34.57-108.41Z"/><path class="cls-2" d="M273.72,84.87l-.27.31a3.17,3.17,0,0,0-.21.27,4.43,4.43,0,0,0-.29.42,5.11,5.11,0,0,0-.28.46c-.09.15-.17.3-.25.46a.43.43,0,0,0,0,.07c-.07.14-.14.28-.2.42l-.24.53q-.21.5-.42,1a.49.49,0,0,0,0,.11l-.22.63c-.05.15-.1.29-.14.44s-.17.53-.25.8-.17.55-.24.84-.14.49-.2.74c-.15.56-.29,1.14-.42,1.73-.1.4-.19.8-.27,1.22-.35,1.67-.68,3.49-1,5.42,0,0,0,0,0,.06-.06.42-.13.85-.19,1.28-.11.72-.21,1.47-.31,2.22-.05.41-.11.83-.16,1.25l-.18,1.49c-.05.38-.09.76-.13,1.15,0,.12,0,.25,0,.38-.07.7-.15,1.4-.22,2.12-.12,1.17-.23,2.36-.34,3.56l-.18,2.14c0,.42-.07.83-.1,1.25-.07.86-.13,1.71-.19,2.57s-.12,1.73-.18,2.59c-.12,1.73-.22,3.46-.32,5.19-.35,6.45-.58,12.78-.72,18.34-2-10.48-7.35-13.88-8.11-16a2.21,2.21,0,0,0-.16-.35,2.33,2.33,0,0,0-.2-.34,3.91,3.91,0,0,0-.49-.62c-.1-.11-.2-.21-.31-.31a5,5,0,0,0-.42-.37c-.14-.12-.29-.23-.45-.35a16.42,16.42,0,0,0-2.51-1.45l-.57-.27c-.58-.27-1.19-.52-1.81-.76l-.57-.21h0l-1.16-.41-1.16-.38c-.52-.17-1-.33-1.54-.47l-.45-.13c-.9-.26-1.75-.48-2.53-.68,1.62-1.84,6.15-6.77,7.58-8.78A71.14,71.14,0,0,0,262,89.61a39.34,39.34,0,0,1,6.53-4.31A8.93,8.93,0,0,1,273.72,84.87Z"/><path class="cls-1" d="M250.62,284.38c-14.19,16.64-26.91,27.43-37.33,34.42h0c-1.09.73-2.15,1.42-3.19,2.07-.5.31-1,.62-1.48.91-1,.6-1.93,1.15-2.85,1.67l-1.37.76-1.33.71c-.75.4-1.49.77-2.2,1.12s-1.37.66-2,1l-1,.46-.89.39-1,.41c-.87.35-1.7.67-2.48,1l-1.53.54-1.4.45-.14,0c-.62.19-1.19.35-1.72.49-1.49.39-2.61.61-3.34.73l-.51.07h-.07l-.18,0-.25,0c-10.91-1.67-20.7-8.11-28.54-15.28a115.28,115.28,0,0,1-19.39-23.46l-1.06-2.27c66.6,13.15,114.16-5.76,115.26-6.2Z"/><path class="cls-1" d="M259.93,487.67c-9,12.81-21,14.71-27.94,14.56a28.18,28.18,0,0,1-5.64-.65l-.08,0a242.88,242.88,0,0,1-31.75-13c-2-1-4.07-2.08-6.08-3.2-10.55-5.85-20.53-13-26.34-21.19a29.8,29.8,0,0,1-3.93-7.41.09.09,0,0,1,0-.05,33.42,33.42,0,0,1-1.54-8.93c-.05-.78-.08-1.57-.09-2.39h0c-.12-7.48,1-16.68,2.81-26.59.59-3.23,1.27-6.54,2-9.89,8-36.34,23-77.29,23-77.29s9.76-.7,25.76-10.73c1-.65,2.11-1.34,3.2-2.07q3.06-2.06,6.38-4.56a189.65,189.65,0,0,0,25.71-23.91c1.72-1.89,3.47-3.87,5.23-5.94h0c.1,1.31.19,2.62.27,3.92,4.08,65.32-15.52,116.19-22.49,132-1.48,3.34-2.39,5.11-2.39,5.11a15.13,15.13,0,0,1,2.77,2.25c10.26,10.14,23.77,41.78,29,54.58C259.13,485.6,259.93,487.67,259.93,487.67Z"/><path class="cls-3" d="M137.63,431.68A32.58,32.58,0,0,1,136,442c-20.7-7-26.5-22.61-26.5-22.61a135.5,135.5,0,0,1-3.06-19.73c0-.22,0-.44-.05-.66a32.66,32.66,0,0,1,25.34,13.88h0a32.77,32.77,0,0,1,5.93,18.8Z"/><path class="cls-1" d="M67.47,181.12c0,1.27-.12,2.5-.2,3.7-.87,13.66-3.15,23.22-5.88,29.91a35.24,35.24,0,0,1-6.19,10.42c-4.16,4.68-7.77,5.1-7.77,5.1a19.15,19.15,0,0,1-4.54,0,175.77,175.77,0,0,1-22.1-3.38C11.5,225,4.62,216.47,2.2,207.31c-.35-1.32-.64-2.65-.86-4a61.9,61.9,0,0,1,.79-24.17,26.85,26.85,0,0,1,5.45-11,18.12,18.12,0,0,1,10.6-5.74,54,54,0,0,1,12.26-.5c-2.3-3.79-3-8.5-3.07-12.94-.09-4,0-6.1,1.78-9.64s5.76-6.29,9.63-5.42c4.35,1,6.66,5.9,6.89,10.36s-1,6.89-.61,11.34,2.95,10.29,7.36,11C58.41,167.47,65.08,174.87,67.47,181.12Z"/><path class="cls-1" d="M116.27,201.46a184.87,184.87,0,0,0,2,24.52c-2,1.84-4.35,3.86-6.82,5.82a78.9,78.9,0,0,1-9,6.24c-4.42,2.59-8.74,4.26-12.21,3.88C80.48,240.85,67,238.08,59,230a68.87,68.87,0,0,0,9.23-16.46c.65-1.67,1.26-3.42,1.81-5.26a60.94,60.94,0,0,0,2.41-21.56c4.09,1.22,8.79,1.81,12.93.3,10-3.65,31.59-46.88,44.56-49.88a9.06,9.06,0,0,1,4.3-.12C126.47,151.14,116,175.13,116.27,201.46Z"/><path class="cls-4" d="M118.32,226c-2,1.84-4.35,3.86-6.82,5.82a78.9,78.9,0,0,1-9,6.24c-4.42,2.59-8.74,4.26-12.21,3.88C80.48,240.85,67,238.08,59,230a68.87,68.87,0,0,0,9.23-16.46c11.22,5,31.69,6.78,48.07-12.11A184.87,184.87,0,0,0,118.32,226Z"/><path class="cls-1" d="M263.92,72A71.76,71.76,0,0,1,246,119.31a74,74,0,0,1-5.64,5.7,71.52,71.52,0,0,1-87.13,6.81c17.15,5.54,48.28,10.78,75.58-10.48,1.39-1.08,2.77-2.24,4.14-3.46a31.51,31.51,0,0,1-1.81-2.9c-.22-.38-.44-.8-.68-1.25-.48-.91-1-2-1.54-3.15a73.8,73.8,0,0,1-6.09-33.47c0-.41,0-.83.06-1.25s.06-1.08.11-1.63.09-1.1.14-1.66c.11-1.11.24-2.25.39-3.39,0-.13,0-.26.05-.38v0a97.42,97.42,0,0,1,3.72-16.13q1-3,2.16-6.11c.2-.52.4-1,.62-1.57s.51-1.26.78-1.89c.18-.42.36-.85.55-1.27s.47-1.07.71-1.61.54-1.18.82-1.77c0,0-2.47-.93-6.77-2.21-9.54-2.86-28.06-7.49-48.37-7.62-3.69,0-7.44.1-11.21.42-13.3,1.09-26.8,4.5-38.6,11.89A71.49,71.49,0,0,1,192.42.5c1.19,0,2.38,0,3.56.09A70.7,70.7,0,0,1,222.6,7.17a71.72,71.72,0,0,1,35.22,35.89l.15.34c.43,1,.85,2,1.24,3,.21.55.41,1.1.61,1.65l.15.43c.36,1,.69,2.06,1,3.11.17.59.34,1.18.5,1.77s.31,1.17.45,1.75c.23,1,.45,1.94.64,2.93.08.39.15.78.22,1.17.17.94.33,1.89.46,2.85.05.35.09.7.14,1.06s.1.85.14,1.28c.07.6.13,1.21.17,1.82s.08,1.05.11,1.58c0,.28,0,.57,0,.86,0,.46,0,.92.05,1.38C263.91,70.7,263.92,71.35,263.92,72Z"/><path class="cls-5" d="M233,118.88c-28.23,25.25-61.7,19.76-79.72,13.94-.51-.34-1-.68-1.53-1l-.28-.19-.51-.37a.24.24,0,0,1-.09-.06l-.77-.56a1.33,1.33,0,0,1-.19-.14l-.35-.26c-.15-.1-.29-.21-.43-.32l-.34-.26-.52-.41a.13.13,0,0,1-.07-.06c-.35-.27-.71-.55-1.05-.84-.77-.62-1.53-1.27-2.27-1.94l-.15-.14-.07,0-.43-.4q-.42-.37-.84-.78l-1-.93a.08.08,0,0,1,0,0l0,0,0,0s0,0,0,0l-1.18-1.19c-.38-.38-.74-.76-1.1-1.15s-1-1.07-1.46-1.62-.94-1.1-1.4-1.66c-.3-.36-.59-.72-.88-1.1l-.7-.9a.47.47,0,0,1-.09-.12c-.34-.44-.67-.88-1-1.33q-1.35-1.86-2.58-3.82c-.35-.54-.68-1.09-1-1.65s-.74-1.26-1.09-1.9-.68-1.24-1-1.88-.55-1.08-.81-1.63q-.26-.51-.48-1c-.09-.18-.18-.37-.25-.55-.2-.43-.39-.87-.58-1.31-.46-1.08-.9-2.17-1.31-3.28-.2-.55-.4-1.11-.59-1.66-.13-.39-.27-.77-.39-1.16s-.18-.56-.26-.84c-.15-.46-.29-.93-.42-1.4q-.76-2.59-1.3-5.27c-.1-.46-.19-.91-.27-1.38-.21-1.11-.39-2.23-.54-3.35,0-.27-.08-.54-.11-.81s0-.41-.07-.61c-.09-.77-.17-1.55-.23-2.33-.06-.57-.1-1.15-.13-1.72s-.07-1.25-.09-1.88v-.18c0-.75,0-1.5,0-2.25A71.05,71.05,0,0,1,128,41.89c11.8-7.39,25.3-10.8,38.6-11.89,3.77-.32,7.52-.44,11.21-.42,29.45.19,55.14,9.83,55.14,9.83C210.05,88,233,118.88,233,118.88Z"/><path class="cls-6" d="M229,111.58a43.38,43.38,0,0,0,4,7.3c-1.37,1.22-2.75,2.38-4.14,3.46-27.3,21.26-58.43,16-75.58,10.48-.51-.34-1-.68-1.53-1l-.28-.19-.51-.37a.24.24,0,0,1-.09-.06l-.77-.56a1.33,1.33,0,0,1-.19-.14l-.35-.26c-.15-.1-.29-.21-.43-.32l-.34-.26-.52-.41L148,129l-.83-.68c-.77-.62-1.53-1.27-2.27-1.94l-.22-.19-.43-.4q-.42-.37-.84-.78l-1-.93a.08.08,0,0,1,0,0l0,0,0,0s0,0,0,0l-1.18-1.19c-.38-.38-.74-.76-1.1-1.15s-1-1.07-1.46-1.62-.94-1.1-1.4-1.66c-.3-.36-.59-.72-.88-1.1l-.7-.9a.47.47,0,0,1-.09-.12c-.34-.44-.67-.88-1-1.33q-1.35-1.86-2.58-3.82c-.35-.54-.68-1.09-1-1.65s-.74-1.26-1.09-1.9-.68-1.24-1-1.88-.55-1.08-.81-1.63q-.26-.51-.48-1c-.09-.18-.18-.37-.25-.55-.2-.43-.39-.87-.58-1.31-.47-1.08-.91-2.17-1.31-3.28-.2-.55-.4-1.11-.59-1.66-.13-.39-.27-.77-.39-1.16s-.18-.56-.26-.84c-.15-.46-.29-.93-.42-1.4q-.76-2.59-1.3-5.27c-.1-.46-.19-.91-.27-1.38-.21-1.11-.39-2.23-.54-3.35,0-.27-.08-.54-.11-.81s0-.41-.07-.61c-.09-.77-.17-1.55-.23-2.33-.06-.57-.1-1.15-.13-1.72s-.07-1.25-.09-1.88v-.18c0-.75,0-1.5,0-2.25A71.05,71.05,0,0,1,128,41.89c11.8-7.39,25.3-10.8,38.6-11.89,3.77-.32,7.52-.44,11.21-.42,20.31.13,38.83,4.76,48.37,7.62,4.3,1.28,6.77,2.21,6.77,2.21a115.07,115.07,0,0,0-5.64,14.22,97.13,97.13,0,0,0-3.73,16.17.09.09,0,0,0,0,0C220.94,89.11,225.33,103.53,229,111.58Z"/><path class="cls-1" d="M266.58,210.52c-.19,1.52-.38,3-.58,4.48h0l-.15,1.07c-.64,4.74-1.32,9.23-2,13.47-4.51,27.71-9.75,44.83-12,51.56-.69,2-1.11,3.1-1.17,3.25v0h0l-.16.06-.13.05-.38.14-.83.31c-.66.23-1.53.54-2.61.9l-.17,0-.92.31-1.33.41-1.41.43-2.38.69-1.54.42-3.37.87-.64.15-1,.25-.16,0-.9.21-2,.46-1.35.29-2.35.49-1.62.32-1.09.2h0l-1.12.2-1.24.23-1.47.25-2.07.33-2.09.32-1.46.21-2.12.29c-1.55.21-3.15.4-4.79.58l-.32,0-1.43.15c-1.43.14-2.89.28-4.38.4l-1.5.12-1.71.12-1.35.09-2.82.16-1.92.09-1.95.07-.49,0-1.84.05-1.62,0-1.72,0h-3.08c-1.52,0-3.06,0-4.62-.06l-2.75-.08h-.08l-1.91-.08c-1.06,0-2.14-.1-3.22-.16s-2.18-.12-3.27-.2-1.92-.14-2.9-.22l-.67-.05h0l-1.79-.16c-1.26-.12-2.52-.24-3.79-.38-1.87-.2-3.76-.42-5.67-.68l-3.08-.42c-1-.15-2.06-.3-3.1-.47l-2.58-.42-2.07-.36c-.8-.14-1.61-.28-2.41-.44s-1.62-.3-2.44-.46c0,0-.68-1.74-1.78-4.84h0a349.6,349.6,0,0,1-10.28-34.49c-1-4.05-1.92-8.28-2.79-12.62-.81-4.13-1.55-8.37-2.17-12.65a184.87,184.87,0,0,1-2-24.52c-.28-26.33,10.2-50.32,17.94-64.41,1.5-2.73,2.9-5.09,4.09-7,2.42-3.89,4-6,4-6l0,0,0,0a.08.08,0,0,0,0,0l1,.93q.42.41.84.78l.25.23.25.22.15.14c.74.67,1.5,1.32,2.27,1.94l.61.5.22.18.22.16a.13.13,0,0,0,.07.06l.52.41.34.26c.14.11.28.22.43.32l.35.26a1.33,1.33,0,0,0,.19.14c.25.2.51.38.77.56a.24.24,0,0,0,.09.06l.51.37.28.19c.51.36,1,.7,1.53,1A71.47,71.47,0,0,0,240.4,126a31,31,0,0,0,3.64-3.7c.78.2,1.63.42,2.53.68l.45.13c.51.14,1,.3,1.54.47l1.16.38,1.16.41h0l.57.21c.62.24,1.23.49,1.81.76l.57.27a16.42,16.42,0,0,1,2.51,1.45c.16.12.31.23.45.35a5,5,0,0,1,.42.37c.11.1.21.2.31.31a3.91,3.91,0,0,1,.49.62,2.33,2.33,0,0,1,.2.34,2.21,2.21,0,0,1,.16.35c.76,2.08,5.12,6.48,7.11,17h0a177.46,177.46,0,0,1,2.8,24.5v.05A229.86,229.86,0,0,1,266.58,210.52Z"/><path class="cls-7" d="M228.89,255.11l-1.63.3a290.31,290.31,0,0,1-34.37,3.82c-4.89.22-10,.31-15,.17-11.6-.32-23.09-1.85-31.89-5.62,0,0-19.95-47,0-90,0,0,37.63,18.62,81.08,3.06,2.51-.9,5.05-1.92,7.6-3.06C234.66,163.77,245.74,221.41,228.89,255.11Z"/><path class="cls-1" d="M323.87,280.88c-6.45,4.13-14.28,5.54-21.81,5.58a89.82,89.82,0,0,1-28.18-4.89,308.5,308.5,0,0,0-4.67-52c-.89-4.84-1.88-9.33-2.93-13.5-.09-.37-.18-.73-.28-1.08h0c-9.07-35.1-22.7-46.65-22.7-46.65s-7-18.9-4.58-31.78c.95-5.13,3.39-9.3,8.34-10.95a15.42,15.42,0,0,1,4.48-.75h0a28.86,28.86,0,0,1,7.66.93,52.91,52.91,0,0,1,6.34,2l.65.26c10.47,4.25,19.34,15.83,26.73,30.87.49,1,1,2,1.45,3s.84,1.84,1.26,2.77l.9,2.06c.59,1.36,1.16,2.75,1.73,4.16.26.65.52,1.29.77,1.95.13.31.25.63.37,1,.26.65.5,1.3.75,2l.07.18c.32.85.64,1.71.95,2.58s.56,1.55.83,2.32.53,1.52.79,2.28.56,1.62.83,2.44c1.21,3.62,2.35,7.3,3.44,11,.26.87.51,1.75.76,2.62,1.22,4.26,2.37,8.54,3.45,12.79s2.07,8.49,3,12.64c.69,3.08,1.34,6.12,2,9.09C320.79,255.84,323.23,274.39,323.87,280.88Z"/><path class="cls-1" d="M132.24,252c-16.8,0-25.35-7-29.69-14a78.9,78.9,0,0,0,9-6.24c2.87,4.3,8.74,8.68,20.73,8.68,23.5,0,19.29-19.28,19.29-19.28s9.09-7.32,12.64,0C164.17,221.2,167.71,252,132.24,252Z"/><path class="cls-1" d="M266.28,216.09c1.05,4.17,2,8.66,2.93,13.5-.73,0-1.47,0-2.21,0-1.06,0-2.11,0-3.16-.08a64.59,64.59,0,0,1-53-32.77l-3.15-6.8a7.28,7.28,0,0,1,10.1-6.7l4.44,6.13c.63,1.05,1.29,2.08,2,3.08a57.09,57.09,0,0,0,14,14.34,49.48,49.48,0,0,0,27.63,9.25Z"/><path class="cls-1" d="M331.43,165.2A64.22,64.22,0,0,1,311.28,212c-1.08-4.25-2.23-8.53-3.45-12.79-.25-.87-.5-1.75-.76-2.62A50.72,50.72,0,0,0,317.9,165.2c0-.55,0-1.09,0-1.64,0-.27,0-.54,0-.81a50.62,50.62,0,0,0-13-31.56,51.61,51.61,0,0,0-9.09-8,115.26,115.26,0,0,0-.95-16.14,64.7,64.7,0,0,1,32.47,35.39,64,64,0,0,1,4.05,19.48c0,.38,0,.75,0,1.13C331.42,163.78,331.43,164.48,331.43,165.2Z"/><path class="cls-1" d="M295.78,123.21c0,1.13,0,2.26,0,3.38a282.1,282.1,0,0,1-2.8,32.32c-7.39-15-16.26-26.62-26.73-30.87.1-1.73.2-3.46.32-5.19.06-.86.11-1.72.18-2.59s.12-1.71.19-2.57c0-.42.06-.83.1-1.25s.07-.83.11-1.24,0-.6.07-.9c.11-1.2.22-2.39.34-3.56.07-.72.15-1.42.22-2.12,0-.13,0-.26,0-.38,0-.39.08-.77.13-1.15l.18-1.49c.05-.42.11-.84.16-1.25.1-.75.2-1.5.31-2.22.06-.43.13-.86.19-1.28,0,0,0,0,0-.06.3-1.93.63-3.75,1-5.42.08-.42.17-.82.27-1.22.13-.59.27-1.17.42-1.73.06-.25.13-.5.2-.74s.15-.57.24-.84.17-.54.25-.8.09-.29.14-.44l.22-.63a.49.49,0,0,1,0-.11q.21-.56.42-1l.24-.53c.06-.14.13-.28.2-.42a.43.43,0,0,1,0-.07c.08-.16.16-.31.25-.46a5.11,5.11,0,0,1,.28-.46,4.43,4.43,0,0,1,.29-.42,3.17,3.17,0,0,1,.21-.27l.27-.31c6.89,1.1,15.81,6.75,15.81,6.75,2.74,3.48,4.39,9,5.3,15.45A115.26,115.26,0,0,1,295.78,123.21Z"/><path class="cls-8" d="M273.91,84.69l-.18.18"/><path class="cls-1" d="M331.83,347.13A28.12,28.12,0,0,1,317,363.75a24.89,24.89,0,0,1-5.52,1.72A24.26,24.26,0,0,1,295,362.85c-6.61-3.81-10-12.67-11.19-20.21q-.92-5.86-1.85-11.72c.48,4.35-4.47,7.94-8.77,7.12s-7.41-4.85-8.44-9.11-.37-8.71.42-13c1.79-9.76,4.28-19.57,9.21-28.14A77.3,77.3,0,0,0,302.66,292a66,66,0,0,0,19.52-3.7c1.17,9.43,4.86,18.44,7.71,27.56C333.06,326,335.22,337.08,331.83,347.13Z"/><path class="cls-9" d="M170.11,451.57a29,29,0,0,1-12,5.13,33.42,33.42,0,0,1-1.54-8.93,90.51,90.51,0,0,0,10.3-4.68c0,.28.09.56.14.83A23.33,23.33,0,0,0,170.11,451.57Z"/><path class="cls-1" d="M261.13,495.35c0,8.88-2.66,20.47-7.92,32.34-9.92,22.38-25.31,37.27-34.38,33.25-2.31-1-4-3.17-5-6.18a31,31,0,0,1-1.28-11.35c.36-8.57,3-19.31,7.87-30.28a107.59,107.59,0,0,1,6-11.55,28.18,28.18,0,0,0,5.64.65c7,.15,18.93-1.75,27.94-14.56,0,0,.25-.36.32-.13s.07.27.1.41.12.5.17.76.11.57.16.87c0,.11,0,.23.06.35l.09.61c.06.47.12,1,.16,1.46,0,.33.05.66.07,1s0,.77.05,1.17S261.13,495,261.13,495.35Z"/><path class="cls-1" d="M188.44,485.35c-11.65,11.94-23.7,17.71-29.91,13.32-2.07-1.46-3.29-3.9-3.72-7.05-.94-6.74,1.69-16.75,7.29-27.46C167.91,472.34,177.89,479.5,188.44,485.35Z"/><path class="cls-10" d="M194.52,488.55c-13.29,14.44-27.75,21.56-35.18,16.3-3.42-2.43-4.87-7.15-4.53-13.23.43,3.15,1.65,5.59,3.72,7.05,6.21,4.39,18.26-1.38,29.91-13.32C190.45,486.47,192.49,487.54,194.52,488.55Z"/><path class="cls-11" d="M197.16,294.77c-4.88.31-10,.48-15.44.46-3.42-13.35-3.93-27.34-3.85-35.83,5.06.14,10.13.05,15-.17C192.79,267.5,193.29,282.11,197.16,294.77Z"/><path class="cls-8" d="M252.44,287.27"/><path class="cls-8" d="M253,280.59"/><path class="cls-8" d="M30.45,161.94s17.64,2.7,5,32.41"/><path class="cls-12" d="M153.27,132.82c-.51-.34-1-.68-1.53-1l-.28-.19-.51-.37a.24.24,0,0,1-.09-.06l-.77-.56a1.33,1.33,0,0,1-.19-.14l-.35-.26c-.15-.1-.29-.21-.43-.32l-.34-.26-.52-.41L148,129l-.83-.68c-.77-.62-1.53-1.27-2.27-1.94l-.22-.19-.43-.4q-.42-.37-.84-.78l-1-.93a.08.08,0,0,1,0,0l0,0,0,0s0,0,0,0l-1.18-1.19c-.38-.38-.74-.76-1.1-1.15s-1-1.07-1.46-1.62-.94-1.1-1.4-1.66c-.3-.36-.59-.72-.88-1.1l-.7-.9a.47.47,0,0,1-.09-.12c-.34-.44-.67-.88-1-1.33q-1.35-1.86-2.58-3.82c-.35-.54-.68-1.09-1-1.65s-.74-1.26-1.09-1.9-.68-1.24-1-1.88-.55-1.08-.81-1.63q-.26-.51-.48-1c-.09-.18-.18-.37-.25-.55-.2-.43-.39-.87-.58-1.31-.47-1.08-.91-2.17-1.31-3.28-.2-.55-.4-1.11-.59-1.66-.13-.39-.27-.77-.39-1.16s-.18-.56-.26-.84c-.15-.46-.29-.93-.42-1.4q-.76-2.59-1.3-5.27c-.1-.46-.19-.91-.27-1.38-.21-1.11-.39-2.23-.54-3.35,0-.27-.08-.54-.11-.81s0-.41-.07-.61c-.09-.77-.17-1.55-.23-2.33-.06-.57-.1-1.15-.13-1.72s-.07-1.25-.09-1.88v-.18c0-.75,0-1.5,0-2.25A71.05,71.05,0,0,1,128,41.89c11.8-7.39,25.3-10.8,38.6-11.89C166.64,30,117.45,57.07,153.27,132.82Z"/><path class="cls-4" d="M61.39,214.73a35.24,35.24,0,0,1-6.19,10.42c-4.16,4.68-7.77,5.1-7.77,5.1a19.15,19.15,0,0,1-4.54,0,175.77,175.77,0,0,1-22.1-3.38C11.5,225,4.62,216.47,2.2,207.31c-.35-1.32-.64-2.65-.86-4C16.94,208.18,43.78,215.53,61.39,214.73Z"/><path class="cls-13" d="M59,230a42.87,42.87,0,0,1-3,3.58c-6.87,2.88-8.54-3.36-8.54-3.36s3.61-.42,7.77-5.09h0c.16-.17.31-.34.46-.53l.47-.57c.15-.18.29-.37.44-.56a35.29,35.29,0,0,0,2.84-4.5c.28-.52.56-1.07.83-1.65.49-1,1-2.11,1.42-3.29.15-.37.29-.74.43-1.13s.28-.78.42-1.19.28-.82.41-1.24.27-.85.4-1.29.26-.89.39-1.35.25-.92.37-1.4c.07-.26.14-.52.2-.78s.17-.69.25-1,.18-.76.26-1.15.15-.68.22-1c.48-2.3.91-4.79,1.27-7.48.17-1.24.32-2.53.46-3.85s.24-2.42.34-3.68c0-.64.1-1.3.14-2,0-.22,0-.43,0-.65.08-1.2.15-2.43.2-3.7,3.3-1.94,4.46,1.06,4.46,1.06.23,1.55.39,3.07.49,4.57C73.86,207.6,64.09,223.32,59,230Z"/><path class="cls-14" d="M329.89,315.9c-2.85-9.12-6.54-18.13-7.71-27.56,1-.36,2.09-.76,3.13-1.2A4.27,4.27,0,0,0,327.7,282c-.69-2.05-2.26-1.28-3.75-1.17l-.08.05c-.64-6.49-3.08-25-7.64-47.15-.61-3-1.26-6-2-9.09-.93-4.15-1.93-8.38-3-12.64a64.22,64.22,0,0,0,20.15-46.8c0-.72,0-1.42,0-2.13,0-.38,0-.75,0-1.13a64,64,0,0,0-4.05-19.48,64.7,64.7,0,0,0-32.47-35.39c-.91-6.46-2.56-12-5.3-15.45,0,0-8.92-5.65-15.81-6.75a8.93,8.93,0,0,0-5.21.43A39.34,39.34,0,0,0,262,89.61,71.73,71.73,0,0,0,263.92,73c0-.64,0-1.29,0-1.93,0-.46,0-.92-.05-1.38,0-.29,0-.58,0-.86,0-.53-.07-1-.11-1.58s-.1-1.22-.17-1.82c0-.43-.09-.86-.14-1.28s-.09-.71-.14-1.06c-.13-1-.29-1.91-.46-2.85-.07-.39-.14-.78-.22-1.17-.19-1-.41-2-.64-2.93-.14-.58-.29-1.17-.45-1.75-.21-.78-.44-1.55-.66-2.33s-.54-1.71-.84-2.55l-.15-.43c-.2-.55-.4-1.1-.61-1.65-.39-1-.81-2-1.24-3l-.15-.34A71.72,71.72,0,0,0,222.6,8.17,70.7,70.7,0,0,0,196,1.59v.85l1.09,0a35.29,35.29,0,0,1,35.27,34.65c4.26,8.13.65,2.34.65,2.34-.28.59-.55,1.18-.82,1.77s-.48,1.07-.71,1.61-.37.85-.55,1.27c-.27.63-.53,1.27-.78,1.89s-.42,1-.62,1.57q-1.2,3.1-2.16,6.11c.1,1.69-1.7,8.63-3.72,16.13v0a.09.09,0,0,0,0,0c0,.11,0,.22,0,.33-.15,1.14-.28,2.28-.39,3.39-.05.56-.1,1.11-.14,1.66s-.08,1.09-.11,1.63-.05.84-.06,1.25A73.8,73.8,0,0,0,229,111.58c.54,1.19,1.06,2.24,1.54,3.15.24.45.46.87.68,1.25a31.51,31.51,0,0,0,1.81,2.9q-1.86,1.66-3.75,3.15A65.92,65.92,0,0,1,233,144.58a66.85,66.85,0,0,1-3.3,21.26c1.65-.63,3.31-1.33,5-2.07,0,0,11.08,57.64-5.77,91.34l-1.63.3c.21,11.34.08,22.8-1.76,34.25-.09.59-.19,1.18-.28,1.78h0c-.27,1.63-.56,3.26-.85,4.88-1.1,6-1.35,12-2.69,17.91-1.46,6.53-2,13-3.54,19.45-7.36,31-21.95,76.12-15.07,106.58.57,2.54,1.24,5.07,2,7.57a95,95,0,0,0,3.65,9.94c7.21,16.7,24.61,20.35,23.94,38.53a38.73,38.73,0,0,1-.68,5.92c-2.44,13-4.49,24.7-9.53,36.81a22.48,22.48,0,0,0-1.28,13.59,71,71,0,0,0,2.52,8.83,10.64,10.64,0,0,0,5.17,5.39h0c9.48-3.21,21-16.31,29.15-34.15l.44-1A95.14,95.14,0,0,0,266.31,504c.72-6.76-2.1-13.6-6.26-17.22.07.23.14.47.2.72-.07-.23-.32.13-.32.13s-.8-2.07-2.18-5.46c-5.2-12.8-18.71-44.44-29-54.58a15.13,15.13,0,0,0-2.77-2.25s.91-1.77,2.39-5.11c7-15.78,26.57-66.65,22.49-132,1-.37,1.81-.72,2.55-1,1.21-.51,1.3-1.75,1.26-3.07a4.82,4.82,0,0,0-1.68-3.61l-1.22.52c2.29-6.73,7.53-23.85,12-51.56,1.05,0,2.1.08,3.16.08.74,0,1.48,0,2.21,0a308.5,308.5,0,0,1,4.67,52l-.34-.12a2.92,2.92,0,0,0-4.19.93c-.74,1.45,1,4,2.55,4.44,0,0,.88.39,2.48,1-4.93,8.57-7.42,18.38-9.21,28.14-.79,4.3-1.45,8.76-.42,13s4.14,8.28,8.44,9.11,9.25-2.77,8.77-7.12q.93,5.86,1.85,11.72c1.2,7.54,4.58,16.4,11.19,20.21a24.26,24.26,0,0,0,16.52,2.62,24.89,24.89,0,0,0,5.52-1.72,28.12,28.12,0,0,0,14.79-16.62C335.22,337.08,333.06,326,329.89,315.9ZM307.07,196.59c-1.09-3.7-2.23-7.38-3.44-11-.27-.82-.55-1.63-.83-2.44s-.52-1.52-.79-2.28-.55-1.55-.83-2.32-.63-1.73-.95-2.58l-.07-.18c-.25-.66-.49-1.31-.75-2-.12-.32-.24-.64-.37-1-.25-.66-.51-1.3-.77-1.95-.57-1.41-1.14-2.8-1.73-4.16l-.9-2.06c-.42-.93-.84-1.86-1.26-2.77s-1-2-1.45-3a282.1,282.1,0,0,0,2.8-32.32c0-1.12,0-2.25,0-3.38a51.61,51.61,0,0,1,9.09,8,50.62,50.62,0,0,1,13,31.56c0,.27,0,.54,0,.81,0,.55,0,1.09,0,1.64A50.72,50.72,0,0,1,307.07,196.59Z"/><path class="cls-15" d="M233,39.41c-.28.59-.55,1.18-.82,1.77a33.17,33.17,0,0,0,.18-3.47c0-.21,0-.43,0-.64C236.6,45.2,233,39.41,233,39.41Z"/><path class="cls-16" d="M269.39,157.8l-2.8,10a5.79,5.79,0,1,0,11.14,3.13L281,159.35"/><line class="cls-16" x1="272.11" y1="168.52" x2="277.87" y2="148.97"/><path class="cls-16" d="M279.1,155.71l-3.9,13.92a3.28,3.28,0,0,1-6.31-1.77"/><path class="cls-17" d="M327.1,286.37c-1.64.74-3.29,1.4-4.92,2a66,66,0,0,1-19.52,3.7,77.3,77.3,0,0,1-28.28-4.26c-1.6-.57-2.48-1-2.48-1-1.56-.47-3.29-3-2.55-4.44a2.92,2.92,0,0,1,4.19-.93l.34.12a89.82,89.82,0,0,0,28.18,4.89c7.53,0,15.36-1.45,21.81-5.58l.08-.05c1.22-.09,2.49-.62,3.29.31C328.48,282.59,328.84,285.59,327.1,286.37Z"/><path class="cls-18" d="M316.23,233.73a8.28,8.28,0,0,1-4.3,1.24c-5.74,0-10.54-6.24-11.69-14.57a28.43,28.43,0,0,1-.26-3.86c0-8,3.27-14.74,7.85-17.33,1.22,4.26,2.37,8.54,3.45,12.79s2.07,8.49,3,12.64C315,227.72,315.62,230.76,316.23,233.73Z"/><path class="cls-19" d="M252.45,123.82l-.9,1.05h0a2.09,2.09,0,0,1-.14.17,81.52,81.52,0,0,1-6.2,6.27,74.39,74.39,0,0,1-6.48,5.26A78.5,78.5,0,0,1,138.3,130a3,3,0,0,1-1.15-2.78,3.72,3.72,0,0,1,1.67-2.44c.84-.56,2.51-.6,3.5-.83l0,0,0,0a.08.08,0,0,0,0,0l1,.93q.42.41.84.78c.16.15.33.31.5.45l.15.14c.74.67,1.5,1.32,2.27,1.94l.83.68.22.16a.13.13,0,0,0,.07.06l.52.41.34.26c.14.11.28.22.43.32l.35.26a1.33,1.33,0,0,0,.19.14c.25.2.51.38.77.56a.24.24,0,0,0,.09.06l.51.37.28.19c.51.36,1,.7,1.53,1A71.52,71.52,0,0,0,240.4,126a74,74,0,0,0,5.64-5.7,7.53,7.53,0,0,1,2.89-.41,5.59,5.59,0,0,1,3.26,1.24,1.91,1.91,0,0,1,.69,1.24h0A1.94,1.94,0,0,1,252.45,123.82Z"/><path class="cls-20" d="M206.6,460.19c-4.72,4.15-11.58,5.18-17.76,4.07a28.25,28.25,0,0,1-18.73-12.69,23.33,23.33,0,0,1-3.05-7.65c-.05-.27-.1-.55-.14-.83-1-6.49.67-15.74,6.21-19.75,4.48-3.24,15.68-8.69,20.8-5.43,4.68,3,6.06,7,9,11.73a47,47,0,0,1,3.15,6.47,44.6,44.6,0,0,0,3.51,7.09C213.13,448.41,211.33,456,206.6,460.19Z"/><path class="cls-21" d="M228.78,427.63c-3.82,2.85-10.7,7.12-18.7,8.21a27.29,27.29,0,0,1-4,.27,47,47,0,0,0-3.15-6.47s2.06-.5,5.1-1.37c5.76-1.65,15-4.62,20.34-8-1.48,3.34-2.39,5.11-2.39,5.11A15.13,15.13,0,0,1,228.78,427.63Z"/><path class="cls-22" d="M266.31,504a95.14,95.14,0,0,1-7.84,27.67l-.44,1c-8.12,17.84-19.67,30.94-29.15,34.15a10.89,10.89,0,0,1-8,0c-3.84-1.71-6.19-6.05-7.06-12.08,1.05,3,2.73,5.16,5,6.18a8.46,8.46,0,0,0,4.87.52c9.05-1.52,21.2-15,29.51-33.77,5.26-11.87,7.92-23.46,7.92-32.34,0-.4,0-.8,0-1.19s0-.79-.05-1.17,0-.66-.07-1c0-.5-.1-1-.16-1.46l-.09-.61c0-.12,0-.24-.06-.35-.05-.3-.1-.59-.16-.87s-.11-.51-.17-.76-.06-.28-.1-.41-.13-.49-.2-.72C264.21,490.44,267,497.28,266.31,504Z"/><path class="cls-23" d="M253.44,287.27c-.74.31-1.59.66-2.55,1-1.56.62-3.4,1.31-5.51,2a171.9,171.9,0,0,1-22,6,164.24,164.24,0,0,1-31.42,3.31h-1a198.63,198.63,0,0,1-52-6.6q-1.57-.44-2.88-.84c-1.07-.31-2-.61-2.81-.87a2.9,2.9,0,0,1-1.47-2.94c.15-2.08.53-2.46,1.25-2.81l.49.15h0c7.85,2.47,24.27,6.93,47.74,7.77,2.48.08,5,.13,7.67.13s5.25-.07,7.8-.2a167.58,167.58,0,0,0,27.73-3.79,161.41,161.41,0,0,0,27.3-8.55l1.22-.52a4.82,4.82,0,0,1,1.68,3.61C254.74,285.52,254.65,286.76,253.44,287.27Z"/><path class="cls-24" d="M155.79,316.32c7.84,7.17,17.63,13.61,28.54,15.28,0,0-15,40.95-23,77.29-.73,3.35-1.41,6.66-2,9.89-1.83,9.91-2.93,19.11-2.81,26.59h0A70.87,70.87,0,0,1,141,443.47l-.85-.21C146.13,408.94,153.36,340.13,155.79,316.32Z"/><path class="cls-25" d="M193.47,329.22c.78-.29,1.61-.61,2.48-1C195.08,328.62,194.25,328.94,193.47,329.22Z"/><path class="cls-26" d="M161.34,408.89c-.73,3.35-1.41,6.66-2,9.89-8.14,3.76-17.77,3.74-23.13,3.36a32.63,32.63,0,0,0-4.51-9.26A43.46,43.46,0,0,0,161.34,408.89Z"/></svg>