<svg id="Layer_1" data-name="Layer 1" xmlns="http://www.w3.org/2000/svg" viewBox="0 0 139.08 39.65"><defs><style>.cls-1{fill:none;stroke:#f2505d;stroke-linecap:round;stroke-miterlimit:10;stroke-width:2px;}.cls-2{fill:#fff;}</style></defs><title>logo_white</title><path class="cls-1" d="M17.38,7.43,4.08,20.73A10.49,10.49,0,0,0,18.92,35.57l15.4-15.4"/><line class="cls-1" x1="12.15" y1="26.8" x2="38.65" y2="1"/><path class="cls-1" d="M34.6,12.75,16.05,31.3a5.94,5.94,0,0,1-8.4-8.4"/><path class="cls-2" d="M54.15,15.88V14.36h7.17v1.52H58.65v7.21H56.82V15.88Z"/><path class="cls-2" d="M62.94,23.09H61l3-8.73h2.38l3,8.73h-2l-2.19-6.73h-.06Zm-.13-3.43h4.67V21.1H62.81Z"/><path class="cls-2" d="M74.94,16.87a1.1,1.1,0,0,0-.44-.8,1.76,1.76,0,0,0-1.06-.29,2.11,2.11,0,0,0-.76.13,1,1,0,0,0-.47.35.82.82,0,0,0-.17.5.78.78,0,0,0,.1.41,1.07,1.07,0,0,0,.3.3,2.36,2.36,0,0,0,.45.22,3.69,3.69,0,0,0,.53.15l.79.19a6.15,6.15,0,0,1,1.05.34,3.13,3.13,0,0,1,.82.53,2.07,2.07,0,0,1,.55.73,2.43,2.43,0,0,1,.19,1,2.36,2.36,0,0,1-.4,1.38,2.61,2.61,0,0,1-1.16.91,4.56,4.56,0,0,1-1.82.32,4.88,4.88,0,0,1-1.84-.32,2.74,2.74,0,0,1-1.22-1,2.83,2.83,0,0,1-.46-1.58h1.79a1.3,1.3,0,0,0,.25.73,1.42,1.42,0,0,0,.6.44,2.3,2.3,0,0,0,.85.15,2.23,2.23,0,0,0,.82-.14,1.28,1.28,0,0,0,.54-.38.86.86,0,0,0,.19-.56.75.75,0,0,0-.17-.49,1.26,1.26,0,0,0-.5-.34,4.84,4.84,0,0,0-.81-.26l-1-.24a3.93,3.93,0,0,1-1.74-.84,1.94,1.94,0,0,1-.64-1.54,2.32,2.32,0,0,1,.42-1.38,2.8,2.8,0,0,1,1.18-.92,4,4,0,0,1,1.71-.34,3.86,3.86,0,0,1,1.69.34,2.62,2.62,0,0,1,1.14.92,2.36,2.36,0,0,1,.41,1.37Z"/><path class="cls-2" d="M78.06,23.09V14.36H79.9v3.85H80l3.14-3.85h2.21l-3.24,3.91,3.28,4.82H83.2L80.81,19.5l-.91,1.11v2.48Z"/><path class="cls-2" d="M89.12,14.36h2.27l2.41,5.87h.1l2.4-5.87h2.28v8.73H96.79V17.41h-.07l-2.26,5.64H93.24L91,17.39h-.07v5.7H89.12Z"/><path class="cls-2" d="M100.1,23.09V14.36H106v1.52h-4V18h3.73v1.52h-3.73v2.09h4v1.52Z"/><path class="cls-2" d="M107.11,15.88V14.36h7.17v1.52h-2.67v7.21h-1.83V15.88Z"/><path class="cls-2" d="M115.47,23.09V14.36h5.88v1.52h-4V18H121v1.52h-3.73v2.09h4v1.52Z"/><path class="cls-2" d="M130.84,18.73a5,5,0,0,1-.54,2.42,3.74,3.74,0,0,1-1.47,1.53,4.37,4.37,0,0,1-4.17,0,3.72,3.72,0,0,1-1.46-1.53,5.06,5.06,0,0,1-.54-2.42,5,5,0,0,1,.54-2.43,3.72,3.72,0,0,1,1.46-1.53,4.37,4.37,0,0,1,4.17,0,3.74,3.74,0,0,1,1.47,1.53A5,5,0,0,1,130.84,18.73Zm-1.88,0a4,4,0,0,0-.27-1.56,2,2,0,0,0-1.94-1.3,2.06,2.06,0,0,0-1.17.33,2.1,2.1,0,0,0-.77,1,3.79,3.79,0,0,0-.28,1.56,3.77,3.77,0,0,0,.28,1.55,2.1,2.1,0,0,0,.77,1,2.06,2.06,0,0,0,1.17.33,2,2,0,0,0,1.94-1.3A4,4,0,0,0,129,18.73Z"/><path class="cls-2" d="M132.2,23.09V14.36h3.44a3.8,3.8,0,0,1,1.69.35,2.47,2.47,0,0,1,1.07,1,3.23,3.23,0,0,1,0,3,2.47,2.47,0,0,1-1.09.95,4,4,0,0,1-1.71.34h-2.31V18.51h2a2.5,2.5,0,0,0,.88-.14,1.08,1.08,0,0,0,.52-.44,1.42,1.42,0,0,0,.17-.72,1.49,1.49,0,0,0-.17-.73,1.08,1.08,0,0,0-.53-.45,2.07,2.07,0,0,0-.88-.16H134v7.22Zm4.71-4,2.17,4h-2l-2.12-4Z"/></svg>