<svg id="Layer_1" data-name="Layer 1" xmlns="http://www.w3.org/2000/svg" xmlns:xlink="http://www.w3.org/1999/xlink" viewBox="0 0 630 630"><defs><style>.cls-1{fill:url(#radial-gradient);}.cls-2{fill:#0c4773;}</style><radialGradient id="radial-gradient" cx="241.45" cy="173.98" fx="15.234581159369299" r="342.56" gradientUnits="userSpaceOnUse"><stop offset="0.45" stop-color="#207abf"/><stop offset="0.6" stop-color="#1d77bb"/><stop offset="0.74" stop-color="#136eb0"/><stop offset="0.89" stop-color="#025f9c"/><stop offset="0.9" stop-color="#005d9a"/></radialGradient></defs><title>planet</title><circle class="cls-1" cx="315" cy="315" r="315"/><path class="cls-2" d="M183,514.32s18.22-42,49.05-53.25,30.82-53.25,30.82-53.25,65.86-37.83-21-70.06c0,0-14-50.45-64.45-70.07s-102.3,2.8-100.9-85.48c0,0-58.85-19.61-2.8-53.24,27.92-16.76,41.24-9.87,47.57,1.27,2.21,3.88,5.46,2.3,7.56-3.24,6.16-16.23,23.14-33.69,66.78-37.27,85.48-7,92.67,1.4,91.18-37.84S248.81,19.67,211,46.29s-1.41-21.9-1.41-21.9A70.69,70.69,0,0,1,222,14,315.88,315.88,0,0,0,27.5,186.11,63,63,0,0,0,40,194.83s47.64,68.66,32.23,88.28-33.63,91.08,16.81,110.7,7,77.07,7,77.07-12,32.06,1.3,71.85a317.41,317.41,0,0,0,39.07,31.78C138.9,556.9,149.62,534.18,183,514.32Z"/><path class="cls-2" d="M286.9,5.65c21.21,7.76,26.61,2.4,26.29-5.63a316.35,316.35,0,0,0-37.67,2.44A75.82,75.82,0,0,1,286.9,5.65Z"/><path class="cls-2" d="M630,315h0a315,315,0,0,0-14.55-94.87c-6.85,5.78-16.65,8.19-24.05-14-12.62-37.83-106.24-30.83-106.24-30.83s-54.91,11.21-56.31,53.25a531.35,531.35,0,0,1-8.41,77.16c25.22,84.16,151.34,41.95,126.11,51.76s2.81,54.65,0,89.68-42,14-29.42,61.66a105.42,105.42,0,0,1,1.48,46.53A314.3,314.3,0,0,0,630,315Z"/><path class="cls-2" d="M487.7,60.39c53.25,29.42,34.33,49,34.33,49s-52.55-26.62-46.94,19.62S522,140.26,522,140.26c29.23,1.74,61.43,28.47,81.58,48.4A316.23,316.23,0,0,0,468,39.61C467.71,45.29,472.86,52.19,487.7,60.39Z"/><path class="cls-2" d="M461.54,92.62s33.17,7,27.56-5.61-19.62-26.62-32.23-23.82c0,0,21,5.6,0,14S461.54,92.62,461.54,92.62Z"/></svg>