<svg id="Layer_1" data-name="Layer 1" xmlns="http://www.w3.org/2000/svg" viewBox="0 0 929.21 489.01"><defs><style>.cls-1{fill:#213970;}</style></defs><title>stars</title><circle class="cls-1" cx="15.41" cy="32.34" r="2.99"/><circle class="cls-1" cx="74.09" cy="75.96" r="2.99"/><circle class="cls-1" cx="813.44" cy="11.95" r="2.99"/><circle class="cls-1" cx="182.58" cy="23.37" r="2.99"/><circle class="cls-1" cx="192.58" cy="103.65" r="2.99"/><circle class="cls-1" cx="279.85" cy="51.1" r="2.99"/><circle class="cls-1" cx="413.19" cy="75.96" r="2.99"/><circle class="cls-1" cx="478.35" cy="11.95" r="2.99"/><circle class="cls-1" cx="588.45" cy="94.69" r="2.99"/><circle class="cls-1" cx="645.52" cy="2.99" r="2.99"/><circle class="cls-1" cx="684.38" cy="68.79" r="2.99"/><circle class="cls-1" cx="452.4" cy="154.65" r="2.99"/><circle class="cls-1" cx="816.42" cy="460.03" r="2.99"/><circle class="cls-1" cx="568.6" cy="344.29" r="2.99"/><circle class="cls-1" cx="671.99" cy="194.09" r="2.99"/><circle class="cls-1" cx="693.38" cy="330.08" r="2.99"/><circle class="cls-1" cx="717.32" cy="415" r="2.99"/><circle class="cls-1" cx="288.81" cy="146.58" r="2.99"/><circle class="cls-1" cx="2.99" cy="169.95" r="2.99"/><circle class="cls-1" cx="26.47" cy="320.04" r="2.99"/><circle class="cls-1" cx="282.83" cy="265.82" r="2.99"/><circle class="cls-1" cx="75.77" cy="406.62" r="2.99"/><circle class="cls-1" cx="176.19" cy="278.92" r="2.99"/><circle class="cls-1" cx="125.17" cy="183.9" r="2.99"/><circle class="cls-1" cx="298.79" cy="390.87" r="2.99"/><circle class="cls-1" cx="162.65" cy="418.36" r="2.99"/><circle class="cls-1" cx="395.78" cy="233.59" r="2.99"/><circle class="cls-1" cx="417.18" cy="369.58" r="2.99"/><circle class="cls-1" cx="740.32" cy="236" r="2.99"/><circle class="cls-1" cx="63.81" cy="483.04" r="2.99"/><circle class="cls-1" cx="224.46" cy="486.03" r="2.99"/><circle class="cls-1" cx="813.44" cy="90.14" r="2.99"/><circle class="cls-1" cx="887.37" cy="54.81" r="2.99"/><circle class="cls-1" cx="926.23" cy="120.62" r="2.99"/><circle class="cls-1" cx="893.34" cy="296.05" r="2.99"/><circle class="cls-1" cx="890.35" cy="197.08" r="2.99"/><circle class="cls-1" cx="816.42" cy="220.42" r="2.99"/><circle class="cls-1" cx="472.37" cy="305.01" r="2.99"/><circle class="cls-1" cx="416.17" cy="471.36" r="2.99"/><circle class="cls-1" cx="503.05" cy="483.1" r="2.99"/><circle class="cls-1" cx="836.27" cy="369.58" r="2.99"/><circle class="cls-1" cx="915.35" cy="396.53" r="2.99"/><circle class="cls-1" cx="618.03" cy="457.89" r="2.99"/><circle class="cls-1" cx="697.11" cy="484.83" r="2.99"/><circle class="cls-1" cx="571.32" cy="237" r="2.99"/></svg>